<svg width="190" height="32" viewBox="0 0 190 32" fill="none" xmlns="http://www.w3.org/2000/svg">
  <!-- Button Background -->
  <rect width="190" height="32" rx="7" fill="#72A4F2" />
  
  <!-- Ko-fi Cup Logo -->
  <g transform="translate(-8, 0.6)">
    <path d="M29.1393 24.6047C25.8118 24.6047 23.1053 23.1165 21.5189 20.4141C20.1144 18.0454 20 15.4798 20 12.613C20 10.9135 20.5113 9.43371 21.4779 8.33338C22.3663 7.32279 23.625 6.66813 25.0228 6.48986C26.6821 6.27967 28.7448 6.26221 30.8895 6.26221C34.3796 6.26221 35.3655 6.30497 36.7386 6.44228C38.5653 6.62356 40.1022 7.30532 41.1827 8.41408C42.28 9.54031 42.86 11.0442 42.86 12.764V13.1105C42.86 16.0465 40.8972 18.5038 38.1618 19.1717C37.9576 19.6535 37.7047 20.1329 37.4053 20.605L37.3975 20.6171C36.4339 22.1065 34.1688 24.6053 29.8301 24.6053H29.1387L29.1393 24.6047Z" fill="white"/>
    <path d="M36.5946 7.87964C35.2979 7.75015 34.3903 7.70679 30.8894 7.70679C28.6417 7.70679 26.7398 7.72847 25.2058 7.923C23.1744 8.18257 21.4453 9.73822 21.4453 12.6128C21.4453 15.4874 21.5965 17.7133 22.7637 19.6797C24.082 21.9274 26.2863 23.159 29.1392 23.159H29.8306C33.3315 23.159 35.2335 21.3004 36.1845 19.8309C36.5952 19.1823 36.8975 18.5342 37.092 17.8856C39.5776 17.6694 41.4145 15.6163 41.4145 13.1097V12.764C41.4145 10.0628 39.6426 8.18257 36.5952 7.87964H36.5946Z" fill="white"/>
    <path d="M21.4459 12.6128C21.4459 9.73822 23.175 8.18257 25.2064 7.923C26.741 7.72847 28.6429 7.70679 30.89 7.70679C34.3909 7.70679 35.2985 7.75015 36.5952 7.87964C39.6426 8.18197 41.4145 10.0622 41.4145 12.764V13.1097C41.4145 15.6169 39.5776 17.67 37.0921 17.8856C36.8975 18.5342 36.5952 19.1823 36.1844 19.8309C35.2335 21.3004 33.3315 23.159 29.8306 23.159H29.1392C26.2863 23.159 24.082 21.9274 22.7637 19.6797C21.5965 17.7133 21.4453 15.5301 21.4453 12.6128" fill="#202020"/>
    <path d="M23.065 12.6343C23.065 15.4222 23.2379 17.2157 24.1455 18.8797C25.1826 20.8034 27.0629 21.5381 29.2027 21.5381H29.8724C32.682 21.5381 34.0437 20.1764 34.8001 18.9881C35.1675 18.3829 35.4915 17.7132 35.6643 16.87L35.7938 16.3298H36.572C38.301 16.3298 39.7922 14.9253 39.7922 13.1311V12.8071C39.7922 10.7974 38.5389 9.73801 36.3557 9.47905C35.1241 9.37125 34.3894 9.32788 30.8878 9.32788C28.5324 9.32788 26.8466 9.34955 25.5717 9.54409C23.7781 9.80367 23.0645 10.8191 23.0645 12.6343" fill="white"/>
    <path d="M35.7969 14.1256C35.7969 14.3852 35.9914 14.5797 36.3371 14.5797C37.4393 14.5797 38.0445 12.9157C38.0445 12.9157 37.4393 11.23 36.3371 11.23C35.9914 11.23 35.7969 11.4245 35.7969 11.6841V14.1263V14.1256Z" fill="#202020"/>
    <path d="M25.1842 13.9968C25.1842 15.2718 25.8973 16.374 26.8049 17.2388C27.4102 17.8224 28.3611 18.4277 29.0092 18.8167C29.2037 18.9245 29.3982 18.9896 29.6144 18.9896C29.874 18.9896 30.0896 18.9245 30.2631 18.8167C30.9117 18.4277 31.8621 17.8224 32.4457 17.2388C33.375 16.3746 34.088 15.2724 34.088 13.9968C34.088 12.6134 33.0509 11.3818 31.5597 11.3818C30.6738 11.3818 30.0685 11.8359 29.6144 12.4623C29.2037 11.8353 28.5773 11.3818 27.6908 11.3818C26.1779 11.3818 25.1836 12.6134 25.1836 13.9968" fill="#FF5A16"/>
  </g>
  
  <!-- Text -->
  <text x="112" y="20.5" fill="#FFFFFF" font-family="-apple-system, BlinkMacSystemFont, 'Segoe UI', Roboto, 'Helvetica Neue', Arial, sans-serif" font-size="12" font-weight="600" letter-spacing="0.2" text-anchor="middle">Support me on Ko-fi</text>
</svg>
